<svg width="17" height="17" viewBox="0 0 17 17" fill="none" xmlns="http://www.w3.org/2000/svg">
<g clip-path="url(#clip0_3_82)">
<g clip-path="url(#clip1_3_82)">
<path d="M16.6584 10.1598C13.07 10.1779 10.8003 11.9008 9.76135 15.3125C6.76859 15.3125 3.75392 15.3125 0.685679 15.3125C0.676975 15.1569 0.660618 15.0025 0.660618 14.8479C0.659568 10.7163 0.659268 6.58468 0.661219 2.45322C0.661519 1.68684 0.759962 1.58719 1.52425 1.58689C4.25169 1.58599 6.97928 1.58659 9.70673 1.59185C11.0744 1.59455 12.2353 2.09697 13.1204 3.13827C14.2593 4.47821 15.3604 5.84996 16.4715 7.2133C16.559 7.3206 16.6477 7.46722 16.6501 7.59717C16.666 8.4482 16.6584 9.29967 16.6584 10.1598ZM8.2763 7.781C8.2763 7.7762 8.2763 7.77155 8.2763 7.76675C10.3244 7.76675 12.3726 7.7729 14.4206 7.75774C14.6353 7.75609 14.9991 7.66935 15.0312 7.5508C15.0924 7.3251 15.0434 6.98686 14.9011 6.80242C14.1733 5.85776 13.413 4.93711 12.6414 4.02741C11.8549 3.10016 10.8306 2.65326 9.61864 2.64906C7.08673 2.6405 4.55482 2.64561 2.02291 2.62985C1.63169 2.62745 1.47743 2.7454 1.48313 3.15493C1.50189 4.50927 1.50009 5.86421 1.48298 7.21871C1.47788 7.62809 1.60213 7.79241 2.03537 7.78881C4.11558 7.77155 6.19594 7.781 8.2763 7.781ZM3.08043 9.05746C3.08043 9.05626 3.08043 9.05506 3.08043 9.05386C2.75809 9.05386 2.43574 9.05626 2.1134 9.05311C1.84464 9.05041 1.57782 9.12529 1.62284 9.42827C1.64385 9.56979 1.91442 9.76742 2.08189 9.77763C2.75644 9.81874 3.43608 9.82069 4.11063 9.78093C4.27345 9.77132 4.42381 9.54698 4.57988 9.42137C4.41856 9.30012 4.27015 9.10398 4.09322 9.07367C3.76428 9.01709 3.41898 9.05746 3.08043 9.05746Z" fill="#959595"/>
</g>
</g>
<defs>
<clipPath id="clip0_3_82">
<rect width="16" height="16" fill="white" transform="translate(0.660034 0.450012)"/>
</clipPath>
<clipPath id="clip1_3_82">
<rect width="16" height="16" fill="white" transform="translate(0.660034 0.450012)"/>
</clipPath>
</defs>
</svg>
