<svg width="17" height="16" viewBox="0 0 17 16" fill="none" xmlns="http://www.w3.org/2000/svg">
<g clip-path="url(#clip0_3_65)">
<g clip-path="url(#clip1_3_65)">
<path d="M10.5806 14H0.578243C0.303178 14 0.078125 14.225 0.078125 14.5V15.5C0.078125 15.775 0.303178 16 0.578243 16H10.5806C10.8557 16 11.0807 15.775 11.0807 15.5V14.5C11.0807 14.225 10.8557 14 10.5806 14ZM15.4943 3.35313L12.9624 0.821875C12.7686 0.628125 12.4498 0.628125 12.256 0.821875L11.9028 1.175C11.709 1.36875 11.709 1.6875 11.9028 1.88125L13.0812 3.05938V5C13.0812 5.87813 13.7345 6.60313 14.5815 6.725V11.75C14.5815 12.1625 14.244 12.5 13.8314 12.5C13.4188 12.5 13.0812 12.1625 13.0812 11.75V10.75C13.0812 9.23125 11.8496 8 10.3305 8H10.0805V2C10.0805 0.896875 9.18339 0 8.08001 0H3.07883C1.97545 0 1.07836 0.896875 1.07836 2V13H10.0805V9.5H10.3305C11.0213 9.5 11.5808 10.0594 11.5808 10.75V11.6187C11.5808 12.7969 12.4248 13.8688 13.5969 13.9906C14.941 14.125 16.0819 13.0688 16.0819 11.75V4.76875C16.0819 4.2375 15.8693 3.72813 15.4943 3.35313ZM8.08001 6H3.07883V2H8.08001V6Z" fill="#959595"/>
</g>
</g>
<defs>
<clipPath id="clip0_3_65">
<rect width="16.16" height="16" fill="white"/>
</clipPath>
<clipPath id="clip1_3_65">
<rect width="16.16" height="16" fill="white"/>
</clipPath>
</defs>
</svg>
