<svg width="16" height="17" viewBox="0 0 16 17" fill="none" xmlns="http://www.w3.org/2000/svg">
<path d="M4.00181 15.4214C4.00181 15.3339 4.00181 15.2576 4.00181 15.1814C4.00181 11.1569 4.00151 7.13226 4.00196 3.10778C4.0021 2.073 4.61211 1.4645 5.64718 1.4642C7.21554 1.46375 8.7839 1.4636 10.3521 1.4639C11.3884 1.46405 11.999 2.07196 11.9991 3.10599C11.9997 7.13703 11.9993 11.1679 11.9993 15.199C11.9993 15.2691 11.9993 15.3391 11.9993 15.4214C9.333 15.4214 6.68539 15.4214 4.00181 15.4214ZM6.0127 4.4533C7.34166 4.4533 8.65942 4.4533 9.98852 4.4533C9.98852 4.12286 9.98852 3.803 9.98852 3.47898C8.65509 3.47898 7.3327 3.47898 6.0127 3.47898C6.0127 3.81226 6.0127 4.12748 6.0127 4.4533Z" fill="#959595"/>
<path d="M2.99852 4.46136C2.99852 8.13375 2.99852 11.7732 2.99852 15.4343C2.50986 15.4343 2.0321 15.4308 1.55434 15.4352C0.981501 15.4406 0.522845 15.2105 0.23986 14.72C0.106427 14.4888 0.0141882 14.1975 0.0125464 13.9327C-0.00372223 11.2758 -0.000886616 8.61898 0.00463577 5.96196C0.00642682 5.10136 0.66986 4.46151 1.53314 4.46136C2.01762 4.46136 2.50195 4.46136 2.99852 4.46136Z" fill="#959595"/>
<path d="M13.002 4.46883C13.5782 4.46883 14.1437 4.43003 14.7018 4.47838C15.4527 4.54346 15.9943 5.20316 15.9975 5.98316C16.0017 7.00704 15.9987 8.03092 15.9987 9.0548C15.9987 10.649 15.9988 12.2432 15.9985 13.8373C15.9982 14.8054 15.3706 15.4345 14.4061 15.4345C14.0043 15.4345 13.6026 15.4348 13.2008 15.4341C13.1376 15.4339 13.0745 15.4287 13.002 15.4254C13.002 11.7721 13.002 8.13241 13.002 4.46883Z" fill="#959595"/>
</svg>
