<svg width="17" height="17" viewBox="0 0 17 17" fill="none" xmlns="http://www.w3.org/2000/svg">
<g clip-path="url(#clip0_3_87)">
<g clip-path="url(#clip1_3_87)">
<path d="M7.59642 11.8293C7.16291 9.79153 6.73897 7.79919 6.31545 5.80684C6.13681 4.96644 5.58841 4.51797 4.73138 4.51437C4.43993 4.51312 4.14834 4.51423 3.85689 4.51409C3.56891 4.51409 3.28106 4.51409 2.96037 4.51409C2.92475 4.19936 2.88428 3.84249 2.84756 3.51751C3.44653 3.51751 4.02389 3.52346 4.60111 3.51612C5.42017 3.50559 5.88568 2.9784 5.80918 2.16087C5.70663 1.06422 5.03614 0.452351 3.93575 0.45152C3.67548 0.451243 3.41507 0.44556 3.15494 0.453737C2.39326 0.477713 1.83808 1.01751 1.88215 1.77531C1.92484 2.50997 2.06037 3.2388 2.14131 3.97166C2.3467 5.8329 2.54626 7.69497 2.74458 9.55704C2.9418 11.4089 3.12723 13.2621 3.3322 15.113C3.43309 16.0244 3.93409 16.4493 4.85487 16.4496C7.35347 16.4501 9.85194 16.4501 12.3505 16.4496C13.2777 16.4494 13.8269 16.0198 14.0532 15.1212C14.2665 14.2746 14.4849 13.4292 14.6919 12.581C14.8788 11.8149 14.4989 11.3447 13.7174 11.3979C11.8694 11.5239 10.0223 11.6659 8.17474 11.8004C7.99015 11.8138 7.80485 11.8191 7.59642 11.8293Z" fill="#959595"/>
</g>
</g>
<defs>
<clipPath id="clip0_3_87">
<rect width="16" height="16" fill="white" transform="translate(0.309998 0.450012)"/>
</clipPath>
<clipPath id="clip1_3_87">
<rect width="16" height="16" fill="white" transform="translate(0.309998 0.450012)"/>
</clipPath>
</defs>
</svg>
