<svg width="17" height="17" viewBox="0 0 17 17" fill="none" xmlns="http://www.w3.org/2000/svg">
<g clip-path="url(#clip0_3_73)">
<path d="M2.10809 14.6757C2.03282 14.6633 1.95755 14.6508 1.88215 14.6384C1.62399 14.5319 1.43787 14.3521 1.32166 14.0972C1.28874 14.025 1.24119 13.9598 1.20039 13.8912C1.17788 13.849 1.15551 13.807 1.133 13.7648C1.00977 13.4709 0.886526 13.1771 0.763287 12.8832C0.67958 12.5926 0.595873 12.3018 0.512307 12.0111C0.389771 11.4217 0.319147 10.8263 0.310425 10.224C0.317037 9.62232 0.382596 9.02737 0.5109 8.43931C0.59531 8.1488 0.67972 7.85828 0.76399 7.56777C0.885823 7.27374 1.0078 6.97971 1.12963 6.68568C1.1731 6.62575 1.21334 6.56399 1.23205 6.49084C1.37343 6.25294 1.51482 6.0149 1.65607 5.777C1.7976 5.58624 1.93912 5.39533 2.08051 5.20456C2.16633 5.10313 2.25201 5.00155 2.33782 4.90012C2.8056 4.41082 3.30531 3.95824 3.86326 3.57248C4.10102 3.43039 4.33877 3.2883 4.57653 3.14621C4.64954 3.12764 4.71116 3.08741 4.77124 3.04408C5.06527 2.9221 5.35915 2.80013 5.65318 2.67816C5.94384 2.59346 6.23435 2.50877 6.525 2.42408C7.11391 2.30351 7.70858 2.23613 8.30972 2.22473C8.91101 2.24133 9.50751 2.30169 10.0968 2.42492C10.3875 2.50948 10.678 2.59403 10.9686 2.67858C11.2625 2.80027 11.5566 2.92196 11.8505 3.04351C11.8932 3.07995 11.9404 3.10809 11.9965 3.11878C12.2501 3.27001 12.5037 3.42125 12.7573 3.57234C12.963 3.72245 13.1688 3.8727 13.3745 4.02281C13.4614 4.09892 13.5484 4.17503 13.6353 4.251C13.851 4.46752 14.0665 4.68389 14.2822 4.9004C14.3431 5.00184 14.4265 5.08399 14.5097 5.1663C14.6612 5.36986 14.8127 5.57343 14.9644 5.777C15.1145 6.03038 15.2646 6.28375 15.4148 6.53726C15.4272 6.59325 15.4546 6.64137 15.4915 6.6847C15.6132 6.97873 15.7349 7.27262 15.8566 7.56665C15.941 7.85716 16.0254 8.14781 16.1098 8.43833C16.2397 9.02695 16.3003 9.62345 16.3108 10.2256C16.3086 10.81 16.2293 11.3859 16.1247 11.9594C16.0361 12.267 15.9475 12.5746 15.8588 12.8821C15.7301 13.1856 15.6014 13.4892 15.4727 13.7926C15.4479 13.8219 15.4236 13.8511 15.4214 13.8921C15.3853 13.9517 15.3435 14.0089 15.3138 14.0716C15.1861 14.3416 15.0015 14.5495 14.7085 14.6435C14.654 14.6542 14.5996 14.6649 14.5451 14.6756C14.2422 14.6756 2.40057 14.6756 2.10809 14.6757ZM12.9596 6.68695C12.9856 6.48619 12.9046 6.32933 12.7591 6.19892C12.5001 5.94062 12.121 5.94259 11.852 6.20356C11.7011 6.34143 8.9345 10.0535 8.82589 10.2235C8.78383 10.2662 8.74542 10.2935 8.67381 10.2723C8.5569 10.2375 8.43451 10.2177 8.31028 10.2305C7.99543 10.2351 7.69535 10.293 7.43031 10.4761C7.15119 10.6172 6.93763 10.8252 6.79188 11.1022C6.60787 11.3769 6.53865 11.6836 6.53879 12.0097C6.52908 12.2987 6.61687 12.5626 6.74025 12.8191C6.76937 12.8796 6.80693 12.8945 6.8663 12.8932C7.05552 12.8893 7.24474 12.888 7.43396 12.8858C7.72616 12.8858 8.01837 12.8858 8.31043 12.8856C8.60277 12.8856 8.89511 12.8855 9.18745 12.8855C9.37653 12.8877 9.56575 12.8872 9.75469 12.8936C9.82545 12.896 9.86119 12.8678 9.88974 12.8063C10.0068 12.5536 10.0905 12.2939 10.0822 12.0113C10.0905 11.6826 9.98963 11.3841 9.83178 11.1013C9.92098 10.9736 10.01 10.8459 10.0992 10.7181C10.234 10.5645 12.253 7.86799 12.4381 7.60027C12.5539 7.44608 12.6695 7.29175 12.7853 7.13756C12.9069 7.01179 12.9719 6.86435 12.9596 6.68695Z" fill="#959595"/>
</g>
<defs>
<clipPath id="clip0_3_73">
<rect width="16" height="16" fill="white" transform="translate(0.309998 0.450012)"/>
</clipPath>
</defs>
</svg>
