<svg width="17" height="17" viewBox="0 0 17 17" fill="none" xmlns="http://www.w3.org/2000/svg">
<g clip-path="url(#clip0_3_69)">
<path d="M16.6592 3.396C16.6592 2.45725 15.8982 1.69641 14.9596 1.69641C14.0208 1.69641 13.26 2.45737 13.26 3.396C13.26 4.12721 13.7227 4.74874 14.3704 4.98863V6.25149C14.3704 7.23241 13.5723 8.03051 12.5914 8.03051H9.20337V4.98863C9.85121 4.74874 10.3138 4.12721 10.3138 3.396C10.3138 2.45725 9.5528 1.69641 8.61417 1.69641C7.67554 1.69641 6.91446 2.45737 6.91446 3.396C6.91446 4.12721 7.37713 4.74874 8.02486 4.98863V8.03038H2.9712V4.98027C3.60712 4.73448 4.05898 4.11873 4.05898 3.396C4.05898 2.45725 3.29801 1.69641 2.35938 1.69641C1.42075 1.69641 0.65979 2.45737 0.65979 3.396C0.65979 4.13569 1.13316 4.76325 1.79293 4.99686V11.9025C1.13329 12.1361 0.65979 12.7636 0.65979 13.5033C0.65979 14.4421 1.42075 15.2029 2.35938 15.2029C3.29801 15.2029 4.05898 14.4419 4.05898 13.5033C4.05898 12.7806 3.60712 12.1648 2.9712 11.919V9.20878H8.02486V11.9107C7.37701 12.1506 6.91446 12.7721 6.91446 13.5033C6.91446 14.4421 7.67542 15.2029 8.61405 15.2029C9.55268 15.2029 10.3136 14.4419 10.3136 13.5033C10.3136 12.7721 9.85097 12.1506 9.20325 11.9107V9.20878H12.5912C14.222 9.20878 15.5487 7.8821 15.5487 6.25136V4.98863C16.1965 4.74874 16.6592 4.12721 16.6592 3.396Z" fill="#959595"/>
</g>
<defs>
<clipPath id="clip0_3_69">
<rect width="16" height="16" fill="white" transform="translate(0.660034 0.450012)"/>
</clipPath>
</defs>
</svg>
