<svg width="81" height="35" viewBox="0 0 81 35" fill="none" xmlns="http://www.w3.org/2000/svg">
<path d="M2.30304 30.8206H8.73262C10.919 34.6335 15.7829 35.9519 19.5958 33.7649C20.8214 33.0623 21.8375 32.0456 22.5407 30.8206H59.3994C61.5847 34.633 66.4475 35.9519 70.2599 33.7665C71.4979 33.0569 72.5222 32.0272 73.2259 30.7859C73.3773 30.7593 73.5232 30.7066 73.6567 30.6296L80.3233 26.6295C80.7243 26.3886 80.97 25.9551 80.97 25.4869V13.4871C80.9668 13.3298 80.9348 13.1746 80.8767 13.0282C80.8621 12.9885 80.8458 12.9511 80.8273 12.9126C80.8089 12.8741 80.8008 12.8366 80.7791 12.8003L77.1566 6.76188L78.1635 4.75016C78.4923 4.09098 78.2248 3.2902 77.5662 2.96142C77.4474 2.90229 77.3209 2.86105 77.1902 2.83935L70.3326 1.69515L67.0779 1.1537C51.1138 -1.46295 34.7314 1.22097 20.4367 8.7953L16.5061 10.8927L10.5062 12.2257C6.42739 13.1242 2.97416 15.82 1.1138 19.5592C1.02049 19.7436 0.971117 19.9471 0.970032 20.1538V29.487C0.970032 30.2232 1.56682 30.8206 2.30304 30.8206ZM20.5192 28.9537C19.3354 31.6436 16.1952 32.8648 13.5053 31.681C10.8154 30.4972 9.59416 27.357 10.778 24.6672C11.9618 21.9773 15.102 20.756 17.7919 21.9398C19.7265 22.7911 20.9738 24.7068 20.97 26.8205C20.9679 27.5551 20.8138 28.2815 20.5181 28.9537H20.5192ZM71.186 28.9537C70.0022 31.6436 66.862 32.8648 64.1721 31.681C61.4822 30.4972 60.2609 27.357 61.4448 24.6672C62.6286 21.9773 65.7688 20.756 68.4586 21.9398C70.3933 22.7911 71.6406 24.7068 71.6368 26.8205C71.6346 27.5551 71.4806 28.2815 71.1849 28.9537H71.186ZM78.3035 17.4872H74.9701L72.9698 14.8201H78.3035V17.4872ZM51.442 2.95383C56.524 2.68147 61.6205 2.96142 66.6417 3.78987L67.3421 3.90706L60.4177 10.8206H50.3163L51.442 2.95383ZM60.97 13.4871C61.3238 13.4871 61.6629 13.3466 61.9124 13.0965L70.5696 4.43766L74.9701 5.17225L74.4363 6.22423C74.2328 6.63221 74.2518 7.11615 74.4873 7.50678L77.2819 12.1536H70.3033C69.5665 12.1536 68.9697 12.7509 68.9697 13.4871C68.9697 13.7758 69.0636 14.0563 69.2366 14.2868L73.2367 19.6205C73.4885 19.9563 73.8834 20.1538 74.3034 20.1538H78.3035V24.7323L74.3034 27.1362C74.3034 27.031 74.3099 26.9257 74.3099 26.8205C74.3099 22.4021 70.7281 18.8203 66.3102 18.8203C61.8918 18.8203 58.31 22.4021 58.31 26.8205C58.3127 27.2198 58.3469 27.6185 58.4114 28.0124C58.4179 28.0591 58.4114 28.1074 58.4223 28.154H47.8407L49.9354 13.4871H60.97ZM48.7207 3.14046L47.6231 10.8206H22.3101C30.5306 6.56765 39.5014 3.95914 48.7207 3.14046ZM3.63659 22.8204H6.30315V20.1538H3.83245C5.39223 17.4379 8.02298 15.5048 11.0807 14.8283L17.1164 13.4871H47.2363L45.147 28.1535H23.5243C23.5243 28.1068 23.5243 28.0591 23.5351 28.0124C23.5992 27.618 23.6328 27.2198 23.6366 26.8199C23.6366 22.4021 20.0548 18.8203 15.6364 18.8203C11.2185 18.8203 7.6367 22.4021 7.6367 26.8199C7.63941 27.2198 7.67359 27.618 7.73815 28.0124C7.74466 28.0591 7.73815 28.1068 7.74846 28.1535H3.63659V22.8204Z" fill="#D7D7D7"/>
<path d="M35.6364 16.1537H40.97V18.8202H35.6364V16.1537Z" fill="#D7D7D7"/>
</svg>
