<svg width="81" height="49" viewBox="0 0 81 49" fill="none" xmlns="http://www.w3.org/2000/svg">
<path d="M3.00468 22.2014L8.90746 18.2664L15.6647 3.44651C16.5632 1.63499 18.4132 0.491869 20.4352 0.49838H75.2969C78.2423 0.49838 80.63 2.88608 80.63 5.83204V41.8319C80.63 42.5682 80.0332 43.1649 79.2965 43.1649H72.1513C70.6951 47.3197 66.147 49.5066 61.9929 48.0505C59.7066 47.2491 57.9086 45.4512 57.1073 43.1649H26.8182C25.362 47.3197 20.8139 49.5066 16.6592 48.0505C14.3729 47.2491 12.5755 45.4512 11.7742 43.1649H1.96355C1.22679 43.1649 0.630005 42.5682 0.630005 41.8319V25.832C0.687508 24.275 1.60114 22.8779 3.00468 22.2014ZM12.1209 17.8318H21.9636C22.6998 17.8318 23.2966 17.235 23.2966 16.4983V9.8316C23.2966 9.09539 22.6998 8.4986 21.9636 8.4986H16.7872L12.1209 17.8318ZM59.4044 41.565C59.9942 44.4507 62.8121 46.3122 65.6978 45.7225C68.5836 45.1327 70.445 42.3153 69.8553 39.4296C69.2655 36.5433 66.4481 34.6819 63.5624 35.2721C61.0792 35.7794 59.2959 37.9642 59.2965 40.4984C59.297 40.857 59.3328 41.214 59.4044 41.565ZM14.0713 41.565C14.661 44.4507 17.4784 46.3122 20.3647 45.7225C23.2504 45.1327 25.1119 42.3153 24.5221 39.4296C23.9324 36.5433 21.115 34.6819 18.2287 35.2721C15.7456 35.7794 13.9628 37.9642 13.9633 40.4984C13.9633 40.857 13.9997 41.214 14.0713 41.565ZM3.29656 35.1653H8.62968V37.8318H3.29656V40.4984H11.2968C11.2968 36.0805 14.8786 32.4987 19.2965 32.4987C23.7149 32.4987 27.2967 36.0805 27.2967 40.4984H56.6299C56.6299 36.0805 60.2117 32.4987 64.6301 32.4987C69.048 32.4987 72.6298 36.0805 72.6298 40.4984H77.9634V37.8318H73.9633V35.1653H77.9634V25.832H28.6297V23.1649H77.9634V5.83204C77.9634 4.35906 76.7693 3.16494 75.2963 3.16494H20.4352C19.4402 3.15789 18.5266 3.71127 18.0714 4.5956L17.5088 5.83204H21.963C24.1722 5.83204 25.9631 7.6224 25.9631 9.8316V16.4983C25.9631 18.7075 24.1722 20.4984 21.963 20.4984H10.3631L4.48037 24.4198C4.44565 24.4426 4.42178 24.4746 4.38977 24.4985H7.29667C8.03289 24.4985 8.62968 25.0953 8.62968 25.832V31.1652C8.62968 31.9014 8.03289 32.4982 7.29667 32.4982H3.29656V35.1653ZM3.29656 29.8316H5.96312V27.165H3.29656V29.8316Z" fill="#D7D7D7"/>
<path d="M25.9631 23.1649H19.2965V25.832H25.9631V23.1649Z" fill="#D7D7D7"/>
<path d="M55.2969 35.1653H28.6302V37.8318H55.2969V35.1653Z" fill="#D7D7D7"/>
</svg>
