<svg width="81" height="35" viewBox="0 0 81 35" fill="none" xmlns="http://www.w3.org/2000/svg">
<path d="M22.9764 17.5137H25.6435V22.8468H22.9764V17.5137Z" fill="#D7D7D7"/>
<path d="M34.9768 13.5136H48.3101V16.1801H34.9768V13.5136Z" fill="#D7D7D7"/>
<path d="M56.3098 13.5136H69.6431V16.1801H56.3098V13.5136Z" fill="#D7D7D7"/>
<path d="M78.9764 18.8467V12.18C78.9764 12.1643 78.9688 12.148 78.9672 12.1306C78.965 11.9885 78.94 11.848 78.8928 11.7134L74.8927 1.01357C74.6974 0.492734 74.1994 0.147682 73.6433 0.148225H20.7912C19.2238 0.153107 17.7367 0.844296 16.7222 2.03896L8.69535 12.5587L5.10974 15.247C3.77022 16.2566 2.98084 17.8359 2.97649 19.5135V22.8468H1.64349C0.906725 22.8468 0.309937 23.4436 0.309937 24.1803V29.5135C0.309937 30.2497 0.906725 30.8465 1.64349 30.8465H6.22465C7.67702 34.2075 11.5789 35.7548 14.9399 34.3019C16.4894 33.6324 17.7253 32.3965 18.3953 30.8465H58.2244C59.6676 34.2042 63.5597 35.7559 66.9175 34.3127C68.5651 33.6042 69.8553 32.2571 70.4911 30.5801L77.9581 26.8469H78.9764C79.7132 26.8469 80.3099 26.2496 80.3099 25.5134V20.1802C80.3099 19.444 79.7132 18.8467 78.9764 18.8467ZM72.7193 2.81478L75.7217 10.847H73.2342L70.2313 2.81478H72.7193ZM18.7843 3.7257C19.2911 3.14681 20.0224 2.81478 20.7912 2.81478H24.31V12.18H12.3368L18.7843 3.7257ZM6.19535 25.5671C6.02174 25.9642 5.88774 26.3776 5.79496 26.8013C5.79496 26.8165 5.79496 26.8306 5.78737 26.8469C5.69459 27.2853 5.64685 27.7318 5.64577 28.1799H2.97649V25.5134H6.21271C6.20458 25.5307 6.20186 25.5497 6.19535 25.5671ZM16.1644 29.1787C15.5758 31.3082 13.372 32.5571 11.2431 31.9679C9.53411 31.4953 8.33999 29.9535 8.31015 28.1805C8.33999 25.9837 10.1135 24.2107 12.3097 24.1803C14.4842 24.1456 16.2751 25.8796 16.3098 28.054C16.3158 28.4338 16.267 28.813 16.1644 29.1787ZM29.6432 28.1805H18.9764C18.972 24.4999 15.9897 21.5181 12.3097 21.5138C11.9327 21.5154 11.5567 21.5501 11.1856 21.6174C11.0657 21.6391 10.9512 21.6776 10.8324 21.7058C10.5845 21.7606 10.3392 21.8295 10.0989 21.9125C9.96597 21.9614 9.83251 22.0254 9.69904 22.0829C9.48583 22.174 9.27695 22.2755 9.0735 22.3873C8.94058 22.4643 8.80712 22.5522 8.67365 22.639C8.56569 22.7112 8.44958 22.7725 8.34433 22.8468H5.64305V19.5135C5.64522 18.6747 6.04019 17.8853 6.70968 17.3802L10.087 14.8471H25.6431C26.3793 14.8471 26.9766 14.2498 26.9766 13.5136V2.81478H29.6432V28.1805ZM50.9767 28.1805H32.3097V2.81478H50.9767V28.1805ZM68.1648 29.1787C67.5783 31.2729 65.4054 32.4952 63.3118 31.9088C61.2176 31.3223 59.9953 29.1494 60.5817 27.0558C61.1682 24.9616 63.3411 23.7393 65.4347 24.3257C67.1578 24.8081 68.3389 26.3917 68.3102 28.1805C68.3042 28.5179 68.2548 28.8537 68.1648 29.1787ZM72.4204 26.0412C72.447 26.0874 72.4757 26.1318 72.5072 26.1747C72.5636 26.2827 72.6347 26.3819 72.7183 26.4709L72.7258 26.4839L70.929 27.3829C70.917 27.2842 70.8834 27.1936 70.8671 27.0959C70.8357 26.9055 70.7939 26.7216 70.7461 26.5377C70.6886 26.312 70.6192 26.0895 70.5378 25.8709C70.4727 25.6962 70.4049 25.5269 70.3235 25.3587C70.2237 25.1493 70.1125 24.9448 69.9915 24.7467C69.8965 24.591 69.8021 24.4391 69.6953 24.291C69.5558 24.1055 69.4066 23.9275 69.2487 23.7577C69.1299 23.6242 69.0144 23.4908 68.8847 23.3693C68.7095 23.2076 68.5255 23.0557 68.334 22.9135C68.2006 22.8083 68.0671 22.6987 67.9168 22.6043C67.7041 22.4719 67.4844 22.3525 67.2582 22.2457C67.1101 22.1724 66.9701 22.0883 66.8155 22.0254C66.554 21.925 66.287 21.8415 66.0152 21.7747C65.8818 21.7389 65.7483 21.6858 65.6154 21.6586C65.1884 21.5718 64.7544 21.5268 64.3193 21.5257C60.6393 21.5301 57.6569 24.5118 57.6526 28.1924H53.6433V2.81478H67.3846L71.0603 12.6482C71.2556 13.1691 71.7536 13.5136 72.3097 13.5136H76.3098V18.8467H73.6433C72.9065 18.8467 72.3097 19.444 72.3097 20.1802V25.5134C72.3097 25.6951 72.3477 25.8752 72.4204 26.0412ZM77.6434 24.1803H74.9768V21.5138H77.6434V24.1803Z" fill="#D7D7D7"/>
</svg>
