<svg width="81" height="33" viewBox="0 0 81 33" fill="none" xmlns="http://www.w3.org/2000/svg">
<path d="M33.9933 12.4987H39.3264V15.1658H33.9933V12.4987Z" fill="#D7D7D7"/>
<path d="M79.5157 8.51217L70.4586 7.21876C68.8072 6.20422 67.0933 5.29602 65.3263 4.49904C59.4908 1.85581 53.1572 0.491876 46.7504 0.498929H45.1771C37.6163 0.504354 30.1765 2.4016 23.5359 6.01759L18.965 8.51108C13.6146 8.5713 8.36716 9.99437 3.71872 12.6441C1.82962 13.7276 0.663167 15.7376 0.659912 17.9148V25.832C0.659912 26.5688 1.2567 27.1656 1.99346 27.1656H6.47046C7.92662 31.3198 12.4747 33.5073 16.6289 32.0511C18.9157 31.2498 20.7131 29.4518 21.5144 27.1656H57.1372C58.5934 31.3198 63.1415 33.5073 67.2957 32.0511C69.5819 31.2498 71.3799 29.4518 72.1812 27.1656H72.6597C72.8295 27.1656 72.9977 27.1336 73.1556 27.0707L77.4742 25.3378C79.4034 24.5739 80.667 22.7065 80.6599 20.6324V9.83215C80.6599 9.16918 80.1722 8.60657 79.5157 8.51217ZM19.2184 25.5657C18.6287 28.4514 15.8113 30.3128 12.9255 29.7231C10.0393 29.1334 8.17782 26.316 8.76755 23.4297C9.35783 20.544 12.1752 18.6825 15.061 19.2723C17.5441 19.7795 19.3269 21.9643 19.3264 24.499C19.3264 24.8571 19.29 25.2146 19.2184 25.5657ZM43.3265 24.499H21.9929C21.9929 20.0806 18.4116 16.4988 13.9932 16.4988C9.57484 16.4988 5.99303 20.0806 5.99303 24.499H3.32647V17.9148C3.3281 16.6936 3.98239 15.5657 5.04251 14.9591C9.39364 12.4748 14.3166 11.1673 19.3264 11.1657H43.3265V24.499ZM43.3265 8.49915H24.5559L24.813 8.35863C30.5134 5.26076 36.8454 3.50457 43.3265 3.22408V8.49915ZM45.993 3.16549H46.7477C52.121 3.15952 57.4454 4.17948 62.4362 6.17113L60.1082 8.49915H45.993V3.16549ZM69.8852 25.5657C69.2954 28.4514 66.4781 30.3128 63.5918 29.7231C60.706 29.1334 58.8446 26.316 59.4343 23.4297C60.0241 20.544 62.842 18.6825 65.7277 19.2723C68.2109 19.7795 69.9937 21.9643 69.9931 24.499C69.9931 24.8571 69.9568 25.2146 69.8852 25.5657ZM77.9934 12.4987H73.9932V15.1658H77.9934V20.6324C77.9966 21.6149 77.3977 22.4993 76.484 22.86L72.6597 24.396C72.6597 24.2733 72.644 24.1518 72.6358 24.0292C72.6277 23.9066 72.625 23.7628 72.612 23.6294C72.5984 23.4959 72.5718 23.3624 72.5507 23.2295C72.5289 23.096 72.5132 22.9626 72.4866 22.8416C72.46 22.7201 72.421 22.5855 72.3863 22.4586C72.3515 22.3322 72.325 22.2041 72.2848 22.0799C72.2452 21.9562 72.1969 21.8374 72.1519 21.7158C72.1063 21.5949 72.0651 21.4695 72.0184 21.3491C71.9718 21.2292 71.9088 21.1201 71.853 21.0067C71.7971 20.8934 71.7423 20.7691 71.6799 20.6546C71.6169 20.5402 71.5464 20.4425 71.4862 20.3362C71.4265 20.2293 71.3533 20.1078 71.2773 19.9987C71.2008 19.8891 71.1303 19.8029 71.0571 19.7041C70.9838 19.6054 70.9008 19.4893 70.8156 19.3867C70.7304 19.2842 70.6507 19.2039 70.5677 19.1198C70.4852 19.0363 70.393 18.9229 70.3013 18.8295C70.2091 18.7362 70.1185 18.6624 70.0268 18.58C69.9345 18.4975 69.8358 18.3999 69.7344 18.3131C69.6334 18.2268 69.5304 18.1601 69.4294 18.0841C69.328 18.0082 69.2265 17.9268 69.1202 17.8557C69.0133 17.7852 68.8934 17.7228 68.7789 17.6479C68.6639 17.573 68.5706 17.5144 68.4626 17.4575C68.3547 17.4 68.2201 17.3398 68.0975 17.2812C67.9749 17.2226 67.8789 17.1705 67.7655 17.1227C67.6521 17.0745 67.4986 17.024 67.3656 16.9763C67.2322 16.928 67.1454 16.8905 67.032 16.8547C66.8801 16.8081 66.7244 16.7744 66.5692 16.7359C66.4678 16.712 66.3706 16.68 66.2681 16.6589C66.1042 16.6252 65.9361 16.6068 65.7695 16.5824C65.6708 16.5694 65.5764 16.5476 65.4776 16.5384C65.2107 16.5118 64.9443 16.4972 64.6644 16.4972C60.2476 16.5015 56.6685 20.0806 56.6641 24.4974H45.9936V11.1652H60.6599C61.0136 11.1652 61.3527 11.0246 61.6023 10.7745L65.0599 7.31696C66.5112 8.00761 67.9223 8.77964 69.2868 9.62925C69.4441 9.72744 69.6199 9.79201 69.8038 9.81859L77.9934 10.9878V12.4987Z" fill="#D7D7D7"/>
</svg>
